<?xml version="1.0" encoding="UTF-8" standalone="no"?>
<!-- Created with Inkscape (http://www.inkscape.org/) -->

<svg
   xmlns:dc="http://purl.org/dc/elements/1.1/"
   xmlns:cc="http://creativecommons.org/ns#"
   xmlns:rdf="http://www.w3.org/1999/02/22-rdf-syntax-ns#"
   xmlns:svg="http://www.w3.org/2000/svg"
   xmlns="http://www.w3.org/2000/svg"
   xmlns:sodipodi="http://sodipodi.sourceforge.net/DTD/sodipodi-0.dtd"
   xmlns:inkscape="http://www.inkscape.org/namespaces/inkscape"
   width="744.09448819"
   height="1052.3622047"
   id="svg2"
   version="1.1"
   inkscape:version="0.48.4 r9939"
   sodipodi:docname="aim.svg">
  <defs
     id="defs4">
    <clipPath
       clipPathUnits="userSpaceOnUse"
       id="clipPath2998">
      <rect
         style="opacity:0.2;fill:#4d4d4d;stroke:none"
         id="rect3000"
         width="578.57141"
         height="460"
         x="55"
         y="224.50504" />
    </clipPath>
  </defs>
  <sodipodi:namedview
     id="base"
     pagecolor="#ffffff"
     bordercolor="#666666"
     borderopacity="1.0"
     inkscape:pageopacity="0.0"
     inkscape:pageshadow="2"
     inkscape:zoom="0.7"
     inkscape:cx="245.44968"
     inkscape:cy="31.968436"
     inkscape:document-units="px"
     inkscape:current-layer="layer1"
     showgrid="false"
     inkscape:window-width="1920"
     inkscape:window-height="1024"
     inkscape:window-x="0"
     inkscape:window-y="27"
     inkscape:window-maximized="1" />
  <metadata
     id="metadata7">
    <rdf:RDF>
      <cc:Work
         rdf:about="">
        <dc:format>image/svg+xml</dc:format>
        <dc:type
           rdf:resource="http://purl.org/dc/dcmitype/StillImage" />
        <dc:title></dc:title>
      </cc:Work>
    </rdf:RDF>
  </metadata>
  <g
     inkscape:label="Livello 1"
     inkscape:groupmode="layer"
     id="layer1">
    <path
       style="fill:#000000"
       d="m -282.42859,739.93007 c -23.7969,-2.72252 -35.1413,-5.06693 -53.5,-11.0562 -14.9388,-4.87356 -36.65887,-15.61413 -50.86401,-25.15219 -49.94338,-33.53455 -81.70322,-84.54732 -89.17687,-143.23619 -2.01042,-15.78734 -1.56911,-41.77471 0.95912,-56.48046 9.31644,-54.19002 38.95976,-100.84909 84.58179,-133.13309 27.51267,-19.46907 60.57977,-32.31658 96.49997,-37.49298 12.5297,-1.80563 46.1962,-1.54415 59.6638,0.46339 27.245,4.06129 56.4204,14.17751 78.3362,27.16215 54.6731,32.39261 89.8265,83.19207 100.1869,144.77803 2.3882,14.19597 2.3776,46.25237 -0.02,60.7225 -11.3156,68.29178 -55.0436,124.99503 -119.1668,154.52681 -16.0403,7.38733 -38.4924,14.0638 -57.0707,16.97088 -9.4893,1.48485 -43.0767,2.76853 -50.4293,1.92735 z m 45,-4.02684 c 104.0138,-14.15353 181,-98.89679 181,-199.23726 0,-58.11227 -24.2798,-110.95236 -69,-150.16444 -61.4657,-53.89509 -151.3411,-67.23467 -227,-33.69204 -51.45197,22.81075 -90.80327,64.03747 -110.09733,115.3444 -13.78526,36.65788 -15.983,76.92926 -6.30847,115.59631 11.46977,45.84225 40.01376,86.80485 80.40583,115.38792 43.04687,30.46174 98.35677,43.92846 150.99997,36.76511 z m -58.5617,-11.93629 c -63.3765,-9.25425 -119.67811,-49.34473 -147.84406,-105.27484 -11.37609,-22.5899 -20.33636,-58.94934 -18.71362,-75.93707 0.0899,-0.94084 3.93628,-1.25 15.55202,-1.25 14.55436,0 15.46874,-0.11382 16.06739,-2 0.58805,-1.8528 1.51303,-2 12.56739,-2 l 11.93261,0 0,4.5 c 0,3.78893 0.30694,4.5 1.9425,4.5 1.5704,0 2.00141,-0.81413 2.25,-4.25 l 0.3075,-4.25 21,0 20.99997,0 0.3075,4.25 c 0.2031,2.80627 0.778,4.25 1.6925,4.25 0.9145,0 1.4895,-1.44373 1.6925,-4.25 l 0.3075,-4.25 21,0 21,0 0.3075,4.25 c 0.2031,2.80627 0.778,4.25 1.6925,4.25 0.9145,0 1.4895,-1.44373 1.6925,-4.25 l 0.3075,-4.25 12,-0.31695 c 6.6,-0.17432 16.1625,-0.0198 21.25,0.34333 l 9.25,0.66027 0,19.90667 0,19.90668 -4.5,0 c -3.8333,0 -4.5,0.2963 -4.5,2 0,1.7037 0.6667,2 4.5,2 l 4.5,0 0,20.5 0,20.5 -4.5,0 c -3.2536,0 -4.5,0.39954 -4.5,1.4425 0,0.98216 1.3563,1.54064 4.25,1.75 l 4.25,0.3075 0.2707,20.25 0.2707,20.25 -4.5207,0 c -3.854,0 -4.5207,0.29494 -4.5207,2 0,1.7037 0.6667,2 4.5,2 l 4.5,0 0,12 c 0,11.33333 -0.1111,12 -2,12 -1.9111,0 -2,0.66667 -2,15 l 0,15 -7.75,-0.10745 c -4.2625,-0.0591 -11.8278,-0.70288 -16.8117,-1.43064 z m 22.5617,-15.96191 c 0,-14.92849 0.075,-15.5 2.0376,-15.5 1.9239,0 2.0214,-0.5158 1.75,-9.25 l -0.2876,-9.25 -4.5,-0.5 c -4.3809,-0.48677 -4.5,-0.59259 -4.5,-4 0,-3.46599 0.046,-3.50296 4.75,-3.80479 l 4.75,-0.30479 0,-17.89042 0,-17.89042 -4.75,-0.30479 -4.75,-0.30479 0,-4 0,-4 4.7729,-0.30572 4.7728,-0.30573 -0.2728,-17.69427 -0.2729,-17.69428 -4.5,-0.5 c -4.3809,-0.48677 -4.5,-0.59259 -4.5,-4 0,-3.46599 0.046,-3.50296 4.75,-3.80479 l 4.75,-0.30479 0,-11.79852 c 0,-6.48918 -0.2891,-14.56453 -0.6424,-17.94521 l -0.6425,-6.14669 -18.3,0 -18.3001,0 -0.3075,4.24137 c -0.3309,4.56486 -1.7126,5.50122 -6.3866,4.32813 -2.054,-0.51553 -2.4209,-1.21088 -2.4209,-4.58855 l 0,-3.98095 -18.4425,0 -18.4425,0 -0.3075,4.25 c -0.3068,4.24042 -0.3165,4.25 -4.3075,4.25 -3.991,0 -4.0007,-0.01 -4.3075,-4.25 l -0.3075,-4.25 -18.44247,0 -18.4425,0 0,3.37756 c 0,4.06318 -1.89794,5.87945 -5.68953,5.4447 -2.53089,-0.2902 -2.84106,-0.74504 -3.11797,-4.57226 l -0.3075,-4.25 -9.9425,0 c -9.27583,0 -9.9425,0.1341 -9.9425,2 0,1.91667 -0.66667,2 -16,2 l -16,0 0,2.62166 c 0,1.44192 0.70307,7.40442 1.56237,13.25 7.88448,53.63565 37.16858,99.43749 83.18774,130.10987 24.03206,16.01769 54.87386,27.54602 82.74986,30.93099 4.95,0.60108 10.125,1.25537 11.5,1.45399 1.375,0.19862 3.7375,0.42241 5.25,0.49731 l 2.75,0.13618 z m 14,2.5 c 0,-14.33333 -0.089,-15 -2,-15 -1.8889,0 -2,-0.66667 -2,-12 l 0,-12 4.5,0 c 3.8334,0 4.5,-0.2963 4.5,-2 0,-1.7037 -0.6666,-2 -4.5,-2 l -4.5,0 0,-20.5 0,-20.5 4.5,0 c 3.3334,0 4.5,-0.38889 4.5,-1.5 0,-1.11111 -1.1666,-1.5 -4.5,-1.5 l -4.5,0 0,-20.5 0,-20.5 4.5,0 c 3.8334,0 4.5,-0.2963 4.5,-2 0,-1.7037 -0.6666,-2 -4.5,-2 l -4.5,0 0,-19.8554 0,-19.85539 6.75,-0.6375 c 3.7125,-0.35062 13.1625,-0.64069 21,-0.6446 l 14.25,-0.007 0,4.5 c 0,3.78893 0.307,4.5 1.9425,4.5 1.5704,0 2.0014,-0.81413 2.25,-4.25 l 0.3075,-4.25 21,0 21,0 0.3075,4.25 c 0.2031,2.80627 0.778,4.25 1.6925,4.25 0.9145,0 1.4895,-1.44373 1.6925,-4.25 l 0.3075,-4.25 21,0 21,0 0.3075,4.25 c 0.2031,2.80627 0.778,4.25 1.6925,4.25 0.9145,0 1.4895,-1.44373 1.6925,-4.25 l 0.3075,-4.25 11.8352,-0.28247 c 11.1319,-0.26569 11.8663,-0.16319 12.3601,1.72516 0.4934,1.88689 1.4657,2.02417 16.1649,2.28248 l 15.6398,0.27483 0.3059,5.95077 c 0.3652,7.10354 -2.013,22.44061 -5.5123,35.54923 -14.8626,55.67664 -54.584,101.39714 -108.9041,125.35185 -22.1786,9.78057 -51.0214,16.64815 -69.9197,16.64815 l -6.4698,0 0,-15 z m 22,10.90943 c 56.3841,-7.46652 109.059,-41.13476 138.9324,-88.80158 15.7311,-25.10094 23.6589,-48.95601 27.5361,-82.85785 l 0.6004,-5.25 -16.0344,0 c -15.3678,0 -16.0345,-0.0832 -16.0345,-2 0,-1.8659 -0.6666,-2 -9.9425,-2 l -9.9425,0 -0.3075,4.25 c -0.3068,4.24042 -0.3165,4.25 -4.3075,4.25 -3.991,0 -4.0007,-0.01 -4.3075,-4.25 l -0.3075,-4.25 -18.385,0 -18.385,0 -0.3075,4.25 c -0.3068,4.24042 -0.3165,4.25 -4.3075,4.25 -3.991,0 -4.0007,-0.01 -4.3075,-4.25 l -0.3075,-4.25 -18.885,0 -18.885,0 -0.3075,4.25 c -0.2989,4.13191 -0.4047,4.25 -3.8075,4.25 -3.4027,0 -3.5085,-0.11809 -3.8075,-4.25 l -0.3075,-4.25 -18.9425,0 -18.9425,0 0,18 0,18 4.5,0 4.5,0 0,4 0,4 -4.5,0 -4.5,0 0,18 0,18 4.5,0 4.5,0 0,4.5 0,4.5 -4.5,0 -4.5,0 0,18 0,18 4.5,0 4.5,0 0,4 0,4 -4.5,0 -4.5,0 0,9.38337 c 0,8.54236 0.1793,9.43024 2,9.90638 1.8893,0.49406 2,1.36401 2,15.71482 l 0,15.1918 6.25,-0.64688 c 3.4375,-0.35579 9.625,-1.09381 13.75,-1.64006 z M -430.42856,532.5298 c 0,-1.87466 -0.82734,-1.98922 -16.25,-2.25 l -16.25,-0.27477 0.32786,-7 c 1.27128,-27.14235 11.71602,-59.71396 26.91561,-83.9355 23.59258,-37.59631 58.94934,-66.01795 100.7669,-81.00181 17.4043,-6.23619 43.8845,-11.56269 57.483,-11.56269 l 6.0066,0 0,14.88337 c 0,14.04236 0.113,14.91292 2,15.40638 1.8549,0.48507 2,1.36401 2,12.11663 l 0,11.59362 -4.5,0 c -3.8333,0 -4.5,0.2963 -4.5,2 0,1.7037 0.6667,2 4.5,2 l 4.5,0 0,20.5 0,20.5 -4.5,0 c -3.2536,0 -4.5,0.39954 -4.5,1.4425 0,0.98216 1.3563,1.54064 4.25,1.75 l 4.25,0.3075 0.2707,20.25 0.2707,20.25 -4.5207,0 c -3.854,0 -4.5207,0.29494 -4.5207,2 0,1.70506 0.6667,2 4.5207,2 l 4.5207,0 -0.2707,20.25 -0.2707,20.25 -21,0 -21,0 -0.3075,-4.25 c -0.203,-2.80627 -0.778,-4.25 -1.6925,-4.25 -0.9145,0 -1.4894,1.44373 -1.6925,4.25 l -0.3075,4.25 -21,0 -21,0 -0.3075,-4.25 c -0.203,-2.80627 -0.778,-4.25 -1.6925,-4.25 -0.9145,0 -1.4894,1.44373 -1.6925,4.25 l -0.3075,4.25 -21.24997,0.26989 -21.25,0.26989 0,-4.51989 c 0,-3.85322 -0.29499,-4.51989 -2,-4.51989 -1.7037,0 -2,0.66667 -2,4.5 l 0,4.5 -12,0 c -11.28317,0 -12,-0.11799 -12,-1.97523 z m 22,-5.08227 0,-4.0575 4.25,0.3075 c 4.12537,0.29848 4.2591,0.41747 4.56037,4.0575 l 0.31036,3.75 18.43964,0 18.4396,0 0,-4 0,-4 4.5,0 4.5,0 0,4 0,4 18.4397,0 18.4396,0 0.3104,-3.75 c 0.3012,-3.64003 0.435,-3.75902 4.5603,-4.0575 l 4.25,-0.3075 0,4.0575 0,4.0575 18.4103,0 18.4102,0 0.6588,-8.25 c 0.3624,-4.5375 0.5152,-12.525 0.3398,-17.75 l -0.3191,-9.5 -4.5,-0.5 c -4.3809,-0.48677 -4.5,-0.59259 -4.5,-4 0,-3.46599 0.046,-3.50296 4.75,-3.80479 l 4.75,-0.30479 0,-17.89042 0,-17.89042 -4.741,-0.30479 c -5.1024,-0.32803 -6.038,-1.56494 -4.8285,-6.38388 0.5303,-2.11294 1.1806,-2.42091 5.1117,-2.42091 l 4.504,0 -0.2731,-17.75 -0.2731,-17.75 -4.5,-0.5 c -4.3809,-0.48677 -4.5,-0.59259 -4.5,-4 0,-3.46599 0.046,-3.50296 4.75,-3.80479 l 4.75,-0.30479 0,-9.44521 c 0,-8.737 -0.148,-9.44521 -1.9739,-9.44521 -1.8669,0 -1.989,-0.82697 -2.25,-15.25 l -0.2761,-15.25 -6,0.32293 c -9.3718,0.50441 -24.9221,2.99572 -35.6114,5.7053 -68.22451,17.29404 -122.90767,70.80526 -139.3271,136.34119 -2.3662,9.44437 -5.56147,28.78378 -5.56147,33.66085 l 0,2.46973 15.59362,0 c 14.75262,0 15.62183,0.10787 16.11663,2 0.47851,1.82981 1.36402,2 10.40638,2 l 9.88337,0 z m 145.66667,6.39083 c -0.3667,-0.36666 -0.6667,-9.59166 -0.6667,-20.5 l 0,-19.83333 4.5,0 c 3.8334,0 4.5,-0.2963 4.5,-2 0,-1.7037 -0.6666,-2 -4.5,-2 l -4.5,0 0,-20.5 0,-20.5 4.5,0 c 3.3334,0 4.5,-0.38889 4.5,-1.5 0,-1.11111 -1.1666,-1.5 -4.5,-1.5 l -4.5,0 0,-20.5 0,-20.5 4.5,0 c 3.8334,0 4.5,-0.2963 4.5,-2 0,-1.7037 -0.6666,-2 -4.5,-2 l -4.5,0 0,-11.59362 c 0,-10.75262 0.1451,-11.63156 2,-12.11663 1.887,-0.49346 2,-1.36402 2,-15.40638 l 0,-14.88337 5.9698,0 c 7.4787,0 25.0124,2.52493 35.5302,5.11652 36.3135,8.94765 66.1506,25.20384 92.1695,50.21692 21.0317,20.21875 35.804,42.39247 45.944,68.96402 6.1699,16.16771 11.3742,40.60764 11.3825,53.45254 l 0,6.25 -16,0 c -15.4142,0 -16,0.0744 -16,2.03078 0,1.9458 -0.5126,2.01903 -12.25,1.75 l -12.25,-0.28078 -0.3075,-4.25 c -0.203,-2.80627 -0.778,-4.25 -1.6925,-4.25 -0.9145,0 -1.4895,1.44373 -1.6925,4.25 l -0.3075,4.25 -21,0 -21,0 -0.3075,-4.25 c -0.203,-2.80627 -0.778,-4.25 -1.6925,-4.25 -0.9145,0 -1.4895,1.44373 -1.6925,4.25 l -0.3075,4.25 -21.25,0.26989 -21.25,0.26989 0,-4.51989 c 0,-3.85322 -0.295,-4.51989 -2,-4.51989 -1.7037,0 -2,0.66667 -2,4.5 l 0,4.5 -20.3333,0 c -11.1834,0 -20.6334,-0.3 -21,-0.66667 z m 39.3333,-6.33333 c 0,-4 0,-4 4,-4 4,0 4,0 4,4 l 0,4 19,0 19,0 0,-4 0,-4 4.5,0 4.5,0 0,4 0,4 18.5,0 18.5,0 0,-4 0,-4 4.5,0 4.5,0 0,4 0,4 10,0 c 9.3334,0 10,-0.13333 10,-2 0,-1.91685 0.6667,-2 16.0345,-2 l 16.0344,0 -0.6004,-5.25 c -1.5472,-13.52799 -2.8113,-21.00628 -5.0883,-30.10114 -16.7578,-66.93458 -70.831,-119.69521 -140.9729,-137.55099 -8.0384,-2.04631 -23.6436,-4.50293 -34.6573,-5.45586 l -5.75,-0.4975 0,15.42774 c 0,14.76108 -0.086,15.42775 -2,15.42775 -1.8596,0 -2,0.66667 -2,9.5 l 0,9.5 4.5,0 4.5,0 0,4 0,4 -4.5,0 -4.5,0 0,18 0,18 4.5,0 4.5,0 0,4.5 0,4.5 -4.5,0 -4.5,0 0,18 0,18 4.5,0 4.5,0 0,4 0,4 -4.5,0 -4.5,0 0,18 0,18 19,0 19,0 z"
       id="path3002"
       inkscape:connector-curvature="0"
       sodipodi:nodetypes="cssssssssssssccsssssssssscssscsssccccscccccsccsscccssscccssscccssscssscssssccssscccccccccccssscscccccsscccssscccssscssscsssssscsssscssscccssscccssscccsscsssccccscccccsccssscssssccsssscssscssscccsssccccsccccccccccccccccccccccccccccssscsssscsssscssscssscccssscccsssccccccscccccsccccssscssccssccccccccccccsccccccccssscccscscccssscssscsssscssscccscssscccssscccssscssscssssccsssccscccccsccccssscsccssscccccccccccccccccssscsssscssscccccccccccccccccccccccccccs" />
    <path
       style="fill:#000000;stroke:#aa0000;stroke-width:1.90265548;stroke-miterlimit:4;stroke-dasharray:none"
       d="m 332.67556,952.5553 c -60.42728,-4.84791 -113.38905,-35.38404 -147.6722,-85.14334 -18.42098,-26.73666 -29.30954,-56.6957 -33.08423,-91.02893 -0.92045,-8.37215 -0.78098,-31.83192 0.23707,-39.8863 2.29879,-18.18619 5.59927,-31.74502 11.49285,-47.21414 17.33148,-45.49096 50.23099,-82.3893 93.31132,-104.65296 19.98771,-10.32958 39.47794,-16.56143 62.5063,-19.98599 11.40121,-1.69551 33.04823,-2.13986 45.28755,-0.92963 25.06408,2.47837 48.54503,9.36103 70.52595,20.67244 43.69353,22.48468 78.14472,61.62444 94.47279,107.32991 8.34625,23.36278 11.8958,45.81151 11.29815,71.4528 -0.66922,28.70466 -7.05066,54.8061 -19.68291,80.50675 -29.37502,59.76434 -86.97942,100.15465 -154.26549,108.16603 -7.68119,0.91457 -26.94415,1.31371 -34.42719,0.71336 z m 8.38097,-24.90601 c 0.12853,-14.22881 0.25788,-15.2123 2.00472,-15.2123 0.45936,0 0.9641,-0.34846 1.12161,-0.77413 0.1575,-0.42578 0.28644,-5.71131 0.28644,-11.74567 l 0,-10.97151 -3.21206,0 c -3.50768,0 -5.01647,-0.71198 -4.73566,-2.23465 0.15383,-0.83345 0.65277,-0.96313 4.17906,-1.08582 l 4.00454,-0.13914 -0.11914,-18.21329 c -0.0657,-10.01732 -0.23422,-18.92722 -0.37458,-19.79989 -0.2742,-1.70587 -0.4548,-1.7947 -4.67637,-2.30169 -1.28683,-0.15464 -2.53142,-0.47993 -2.76579,-0.72308 -0.96566,-1.00181 0.35866,-1.50614 3.9539,-1.50614 l 3.74614,0 0,-19.98436 0,-19.98437 -3.89189,-0.44818 c -3.72165,-0.42861 -3.89192,-0.50173 -3.89192,-1.67173 0,-1.19473 0.0914,-1.22684 3.89192,-1.36565 l 3.89189,-0.142 0,-19.49929 0,-19.49925 -1.29727,-0.33296 c -0.71353,-0.18321 -9.73569,-0.45602 -20.0492,-0.60654 l -18.75185,-0.2738 -0.0122,2.14007 c -0.0123,2.23204 -0.64335,5.67398 -1.13471,6.18374 -0.60789,0.63062 -1.24879,-0.80779 -1.49145,-3.34708 -0.13955,-1.45982 -0.3501,-3.14975 -0.46814,-3.75539 l -0.21463,-1.10117 -19.73591,0 -19.73591,0 -0.27012,3.30346 c -0.31133,3.80795 -0.70705,5.13182 -1.45795,4.87827 -0.47859,-0.16158 -0.86957,-1.84387 -1.53181,-6.59116 l -0.22197,-1.59057 -19.72355,0 -19.72351,0 -0.27012,3.30346 c -0.33336,4.07934 -0.66754,5.01639 -1.78748,5.01639 -1.32379,0 -1.85313,-1.52854 -1.85313,-5.35127 l 0,-3.45798 -7.19412,0.0408 c -10.55915,0.0571 -14.92375,0.51045 -15.71444,1.63222 -0.35417,0.50307 -0.72051,1.15066 -0.81317,1.43906 -0.11017,0.34316 -4.63998,0.65727 -13.10794,0.9089 -7.11672,0.21136 -13.66169,0.51111 -14.5444,0.66587 l -1.60496,0.28114 0.29378,7.42727 c 0.84398,21.35528 9.09736,50.96105 20.05818,71.95081 20.36763,39.00365 55.87253,70.64841 97.25649,86.68258 19.75587,7.65438 41.87422,12.06304 59.20403,11.80068 l 2.35873,-0.0367 0.12567,-13.9072 0,0 z m 22.28246,13.65863 c 8.53933,-0.59761 19.20102,-2.42789 29.0124,-4.98048 27.31007,-7.10521 51.04576,-19.25863 73.12053,-37.43997 5.9776,-4.92332 20.25766,-19.49831 25.08452,-25.60269 14.33291,-18.12621 24.58925,-37.28904 31.48738,-58.83034 5.34139,-16.68026 8.53391,-34.53884 8.20568,-45.90186 l -0.14852,-5.13872 -13.44482,-0.32642 c -12.63446,-0.30685 -16.03935,-0.69505 -16.03935,-1.8287 0,-0.25665 -0.33337,-0.81264 -0.74132,-1.23561 -0.63074,-0.65441 -2.35278,-0.76907 -11.54876,-0.76907 l -10.80748,0 -0.21462,1.10117 c -0.11833,0.60565 -0.32888,2.29557 -0.46818,3.7554 -0.24278,2.53928 -0.88356,3.97769 -1.49146,3.34707 -0.4865,-0.50466 -1.12291,-3.94236 -1.1347,-6.12898 l -0.0122,-2.08527 -19.93128,0.12772 -19.93124,0.12771 -0.31868,3.34504 c -0.17504,1.83975 -0.43394,3.65665 -0.57488,4.03755 -0.79865,2.15917 -2.16544,-1.18395 -2.1701,-5.30793 l -0.003,-2.32996 -19.93128,0.12771 -19.93124,0.12772 -0.3097,3.60042 c -0.33091,3.84513 -0.72736,4.66805 -2.11672,4.39344 -0.74797,-0.1477 -0.91009,-0.77902 -1.11153,-4.32819 l -0.23585,-4.15507 -3.30219,-0.15546 c -3.73475,-0.17587 -32.07732,0.82101 -34.79125,1.22361 l -1.76903,0.26237 0,19.5035 0,19.50353 4.12777,0.14159 c 4.05212,0.13873 4.12777,0.16362 4.12777,1.36492 0,1.07481 -0.25788,1.26369 -2.12285,1.55429 -1.16759,0.18198 -3.02509,0.34724 -4.12777,0.36723 l -2.00492,0.0367 0,20.06549 0,20.06552 3.98198,0 c 3.83769,0 5.17332,0.48581 4.17714,1.51928 -0.24115,0.25053 -2.17585,0.59414 -4.2989,0.76401 l -3.86022,0.30888 0,19.97392 0,19.97392 4.12777,0.14158 c 3.87254,0.13262 4.13711,0.20933 4.27841,1.24178 0.19913,1.45742 -1.40931,2.08074 -5.37056,2.08074 l -3.03562,0 0.0469,8.93161 c 0.0608,11.59536 0.35458,14.25008 1.60444,14.47356 2.02944,0.36315 2.12288,1.04922 2.12288,15.5959 l 0,13.8544 2.47666,-0.008 c 1.36218,-0.004 5.55479,-0.22279 9.31696,-0.48597 l 0,0 z M 256.60277,756.05074 c 1.64426,-0.28522 1.72999,-0.47288 2.21865,-4.85216 0.26318,-2.36077 0.89629,-3.6846 1.47456,-3.08471 0.46328,0.48059 1.12259,3.89972 1.13475,5.88428 l 0.0122,1.84061 19.93128,-0.12771 19.93128,-0.12772 0.32071,-3.36707 c 0.29991,-3.14865 0.93906,-4.78773 1.59958,-4.10247 0.46272,0.48005 1.12259,3.89878 1.13471,5.87898 l 0.0122,1.83526 19.79198,0 19.79189,0 0.25584,-1.59056 c 0.14077,-0.87479 0.3097,-9.78649 0.37539,-19.80381 l 0.11956,-18.21329 -4.00985,-0.13914 c -3.75091,-0.13016 -4.01956,-0.21054 -4.16046,-1.23969 -0.1983,-1.44588 1.40516,-2.08086 5.25261,-2.08041 l 2.9177,2.8e-4 -0.11425,-17.74114 c -0.0628,-9.75765 -0.23054,-18.64613 -0.37295,-19.7522 l -0.25828,-2.01104 -2.93533,-0.2844 c -3.46055,-0.33541 -4.57473,-0.71333 -4.57473,-1.55229 0,-0.64364 2.9749,-1.23766 6.19851,-1.23766 l 1.82118,0 0,-20.06552 0,-20.06548 -3.26367,0 c -3.98867,0 -4.75602,-0.27583 -4.75602,-1.7082 0,-1.35864 1.022,-1.7018 5.09591,-1.71094 l 2.97307,-0.008 -0.14281,-11.33837 c -0.11425,-9.08777 -0.27134,-11.38277 -0.79122,-11.56214 -0.35703,-0.12323 -1.04669,-0.6367 -1.5332,-1.1414 -0.82345,-0.8543 -0.88454,-1.88015 -0.88454,-14.8656 l 0,-13.948 -3.42011,0.004 c -12.19072,0.0163 -32.45087,3.67709 -48.93646,8.83825 -16.79454,5.25791 -34.31821,14.01978 -49.40312,24.70171 -9.70929,6.87532 -16.75566,13.01275 -26.35703,22.95711 -9.05835,9.38184 -14.17981,15.6327 -20.78232,25.36525 -18.02506,26.56994 -29.2156,60.68638 -30.4555,92.84938 l -0.14158,3.67053 14.1508,0.27706 c 14.67884,0.28725 16.27368,0.52057 16.27368,2.37958 0,0.50005 0.33582,1.04286 0.74622,1.20627 0.41036,0.16322 5.50526,0.29705 11.32185,0.29705 l 10.57571,0 0,-3.33226 c 0,-3.63898 0.68628,-5.20425 2.15402,-4.91295 0.80338,0.15954 0.92837,0.67721 1.04661,4.3355 l 0.13425,4.15441 18.49964,-0.12282 c 10.17478,-0.0677 19.18784,-0.24237 20.02901,-0.38845 z m 172.59583,0.008 1.93813,-0.2689 0.28155,-3.48197 c 0.47569,-5.88616 2.06042,-5.87392 2.53663,0.0204 l 0.28318,3.5016 19.91259,0 19.91255,0 0.27583,-3.0648 c 0.32317,-3.59251 0.72231,-4.87549 1.43886,-4.62769 0.69664,0.24074 1.14813,2.06201 1.20517,4.86121 0.0367,1.74856 0.26808,2.43014 0.9595,2.81406 0.97618,0.542 20.62192,0.72973 21.92857,0.20973 0.41045,-0.16321 0.74622,-0.66991 0.74622,-1.12561 0,-1.91842 0.65241,-2.00312 15.42612,-2.00312 l 14.29385,0 -0.008,-6.48459 c -0.008,-6.72096 -0.70255,-13.08138 -2.38807,-21.90079 -7.69804,-40.27875 -25.57057,-72.92952 -55.27937,-100.98834 -29.87511,-28.21592 -68.30893,-45.45391 -109.79359,-49.24371 -2.98376,-0.27257 -6.75185,-0.49752 -8.37351,-0.4998 l -2.94838,-0.004 0,13.4267 c 0,7.38471 -0.19994,13.97282 -0.44472,14.64024 -0.24441,0.66739 -0.86185,1.35084 -1.37165,1.51867 -0.5098,0.1677 -1.07673,0.68224 -1.25981,1.14303 -0.1828,0.46084 -0.44443,5.62787 -0.5808,11.48233 l -0.24768,10.64455 3.39869,0 c 3.74708,0 5.22368,0.54342 5.22368,1.92246 0,1.23476 -0.89181,1.50337 -4.99195,1.50337 l -3.49948,0 0,19.99554 0,19.99559 3.82738,0.27216 c 6.46757,0.45989 6.33132,2.29389 -0.17138,2.30723 l -3.656,0.008 0,20.06553 0,20.06552 3.03562,0 c 3.9613,0 5.57014,0.62332 5.37057,2.08074 -0.14159,1.03416 -0.40355,1.10896 -4.35268,1.24291 l -4.20199,0.14241 0.33091,19.08289 c 0.18199,10.49558 0.44244,19.38419 0.57864,19.7524 0.13628,0.36805 0.71059,0.79832 1.27642,0.95578 0.56586,0.1575 9.35242,0.2893 19.52573,0.29297 l 18.49695,0.008 0.1371,-4.03755 c 0.13384,-3.94257 0.16485,-4.0376 1.31641,-4.0376 1.1418,0 1.18342,0.11711 1.30722,3.67053 0.0702,2.01879 0.20198,3.89074 0.29338,4.15992 0.173,0.51192 34.61052,0.49834 38.31296,-0.0163 l 0,4e-5 z"
       id="path3004"
       inkscape:connector-curvature="0"
       inkscape:export-filename="/home/l/git/bitbucket.org/robopet-webapp/sources/aim.png"
       inkscape:export-xdpi="27.570574"
       inkscape:export-ydpi="27.570574" />
  </g>
</svg>
